<?xml version="1.0" encoding="utf-8"?>
<!-- Generator: Adobe Illustrator 22.1.0, SVG Export Plug-In . SVG Version: 6.00 Build 0)  -->
<svg version="1.1" id="Calque_1" xmlns="http://www.w3.org/2000/svg" xmlns:xlink="http://www.w3.org/1999/xlink" x="0px" y="0px"
	 viewBox="0 0 78 78" style="enable-background:new 0 0 78 78;" xml:space="preserve">
<style type="text/css">
	.st0{fill:#FFFFFF;}
</style>
<path class="st0" d="M75.8,2.2c-2.9-2.9-7.7-2.9-10.6,0L39,28.4L12.8,2.2c-2.9-2.9-7.7-2.9-10.6,0s-2.9,7.7,0,10.6L28.4,39L2.2,65.2
	c-2.9,2.9-2.9,7.7,0,10.6C3.7,77.3,5.6,78,7.5,78s3.8-0.7,5.3-2.2L39,49.6l26.2,26.2c1.5,1.5,3.4,2.2,5.3,2.2s3.8-0.7,5.3-2.2
	c2.9-2.9,2.9-7.7,0-10.6L49.6,39l26.2-26.2C78.7,9.9,78.7,5.1,75.8,2.2z"/>
</svg>
