<?xml version="1.0" encoding="utf-8"?>
<!-- Generator: Adobe Illustrator 22.1.0, SVG Export Plug-In . SVG Version: 6.00 Build 0)  -->
<svg version="1.1" id="Calque_1" xmlns="http://www.w3.org/2000/svg" xmlns:xlink="http://www.w3.org/1999/xlink" x="0px" y="0px"
	 viewBox="0 0 90 57.9" style="enable-background:new 0 0 90 57.9;" xml:space="preserve">
<style type="text/css">
	.st0{fill:#FFFFFF;}
</style>
<path class="st0" d="M87.8,11.3l-51.4,45c0,0,0,0-0.1,0c-0.3,0.2-0.5,0.4-0.8,0.6c0,0-0.1,0.1-0.1,0.1c-0.3,0.2-0.6,0.3-0.9,0.4
	c0,0-0.1,0-0.1,0.1c-0.3,0.1-0.6,0.2-1,0.3c0,0-0.1,0-0.1,0c-0.3,0.1-0.7,0.1-1,0.1c0,0,0,0,0,0h0c0,0,0,0,0,0c-0.2,0-0.4,0-0.6,0
	c-0.1,0-0.1,0-0.2,0c-0.2,0-0.3,0-0.5-0.1c-0.1,0-0.1,0-0.2-0.1c-0.1,0-0.3-0.1-0.4-0.1c-0.1,0-0.2-0.1-0.2-0.1
	c-0.1,0-0.3-0.1-0.4-0.1c-0.1,0-0.2-0.1-0.2-0.1c-0.1-0.1-0.2-0.1-0.3-0.2c-0.1,0-0.2-0.1-0.3-0.2c-0.1-0.1-0.2-0.1-0.3-0.2
	c-0.1-0.1-0.2-0.1-0.3-0.2c-0.1-0.1-0.2-0.1-0.3-0.2c-0.1-0.1-0.2-0.1-0.2-0.2c0,0-0.1-0.1-0.1-0.1L1.9,30.3c-2.5-2.5-2.5-6.6,0-9.1
	s6.6-2.5,9.1,0l21.5,21.5l46.9-41c2.7-2.3,6.7-2.1,9.1,0.6C90.7,4.9,90.5,8.9,87.8,11.3z"/>
</svg>
