<?xml version="1.0" standalone="no"?>
<!DOCTYPE svg PUBLIC "-//W3C//DTD SVG 20010904//EN"
 "http://www.w3.org/TR/2001/REC-SVG-20010904/DTD/svg10.dtd">
<svg version="1.0" xmlns="http://www.w3.org/2000/svg"
 width="320.000000pt" height="320.000000pt" viewBox="0 0 320.000000 320.000000"
 preserveAspectRatio="xMidYMid meet">
<metadata>
Created by potrace 1.11, written by Peter Selinger 2001-2013
</metadata>
<g transform="translate(0.000000,320.000000) scale(0.100000,-0.100000)"
fill="#000000" stroke="none">
<path d="M2124 3052 c3 -5 -6 -9 -20 -9 -15 0 -30 -7 -35 -14 -5 -8 -9 -9 -9
-4 0 6 -5 2 -11 -8 -6 -9 -14 -15 -20 -12 -5 4 -9 2 -9 -4 0 -6 -11 -21 -25
-35 -14 -14 -25 -32 -25 -41 0 -9 -4 -13 -10 -10 -5 3 -10 -1 -10 -9 0 -9 -7
-16 -16 -16 -8 0 -12 -4 -9 -10 3 -5 1 -10 -6 -10 -7 0 -10 -3 -6 -6 3 -3 -2
-14 -11 -24 -31 -33 -61 -70 -57 -70 2 0 -7 -12 -20 -26 -14 -15 -25 -30 -25
-33 0 -4 -15 -14 -32 -23 -38 -19 -98 -22 -98 -5 0 8 -3 8 -8 2 -9 -12 -42
-16 -42 -5 0 5 -8 7 -17 5 -10 -1 -24 2 -31 8 -9 7 -11 5 -5 -9 6 -17 5 -17
-10 -6 -9 8 -20 11 -26 8 -5 -3 -12 0 -14 6 -4 9 -6 9 -6 2 -1 -8 -12 -9 -36
-4 -24 5 -35 4 -35 -4 0 -7 -3 -8 -8 -1 -9 13 -42 13 -61 1 -10 -6 -12 -5 -7
2 5 8 -1 12 -14 12 -12 0 -19 -3 -17 -7 3 -5 -5 -8 -18 -8 -13 0 -21 3 -20 6
7 10 -124 -3 -143 -15 -5 -3 -12 -1 -14 5 -3 8 -8 8 -18 -2 -8 -8 -26 -15 -40
-16 -40 -3 -83 -13 -95 -23 -7 -5 -20 -11 -31 -13 -10 -1 -24 -6 -31 -10 -6
-4 -23 -8 -36 -9 -14 -1 -23 -6 -21 -10 3 -4 -2 -8 -11 -8 -10 0 -13 -5 -9
-12 5 -8 0 -7 -11 2 -11 9 -16 10 -11 3 4 -8 1 -13 -8 -13 -9 0 -16 -4 -16
-10 0 -5 -9 -10 -19 -10 -11 0 -23 -5 -26 -10 -4 -6 -11 -8 -16 -4 -5 3 -8 0
-7 -8 2 -7 -5 -12 -14 -12 -10 1 -18 -4 -18 -12 0 -8 -6 -11 -17 -7 -10 4 -14
2 -10 -4 4 -5 -5 -15 -19 -22 -15 -6 -22 -16 -18 -23 4 -6 3 -8 -3 -5 -11 7
-57 -28 -122 -93 -24 -25 -48 -44 -53 -42 -5 1 -7 -2 -3 -8 3 -5 1 -10 -6 -10
-7 0 -10 -3 -6 -6 3 -3 -8 -18 -24 -31 -16 -14 -28 -28 -25 -30 3 -3 -6 -15
-20 -28 -13 -12 -24 -28 -24 -34 0 -6 -7 -14 -15 -17 -8 -4 -12 -10 -9 -15 3
-5 0 -9 -7 -9 -6 0 -9 -8 -6 -20 3 -11 1 -18 -4 -14 -5 3 -9 0 -9 -6 0 -6 -5
-8 -10 -5 -6 4 -10 3 -9 -2 4 -25 -3 -43 -18 -43 -14 0 -15 -2 -5 -9 11 -6 10
-11 -3 -25 -9 -9 -13 -16 -9 -16 3 0 1 -7 -6 -15 -6 -8 -8 -20 -4 -26 4 -8 3
-9 -4 -5 -8 5 -12 0 -12 -13 0 -12 -5 -21 -11 -21 -5 0 -7 -4 -4 -10 3 -5 3
-16 -2 -22 -17 -27 -31 -78 -19 -71 8 5 8 3 -1 -8 -6 -8 -13 -23 -15 -34 -1
-11 -7 -23 -13 -27 -6 -5 -4 -8 5 -8 10 0 11 -3 3 -8 -6 -4 -12 -25 -14 -47
-1 -22 -8 -46 -13 -54 -8 -11 -8 -13 2 -7 6 4 12 2 12 -3 0 -6 -4 -11 -10 -11
-6 0 -10 -29 -10 -66 0 -49 -3 -63 -12 -58 -10 6 -10 4 0 -7 16 -17 16 -43 0
-33 -9 6 -9 3 1 -9 7 -9 11 -23 8 -31 -3 -8 -1 -17 6 -20 9 -3 8 -5 -1 -5 -7
-1 -11 -5 -8 -10 3 -5 7 -29 7 -54 1 -26 5 -44 9 -42 4 2 7 -2 7 -10 0 -8 -3
-12 -7 -10 -4 2 -7 -2 -7 -10 0 -8 4 -12 9 -9 4 3 8 -10 8 -30 0 -19 6 -37 13
-39 9 -4 9 -6 -1 -6 -10 -1 -10 -6 -2 -21 6 -11 8 -20 4 -20 -3 0 -1 -6 5 -13
6 -8 13 -31 17 -53 3 -21 9 -41 14 -44 4 -3 6 -13 4 -23 -1 -9 2 -15 7 -11 8
5 13 -10 10 -30 -1 -5 8 -20 21 -34 13 -14 16 -21 8 -17 -10 6 -9 1 3 -13 11
-12 16 -26 11 -33 -4 -8 -3 -10 4 -5 8 5 12 -1 12 -16 0 -18 2 -20 10 -8 8 13
10 13 11 -2 3 -31 4 -34 22 -52 9 -10 15 -21 13 -25 -3 -4 4 -14 15 -21 10 -8
19 -20 19 -28 0 -7 5 -10 10 -7 6 3 10 -3 10 -15 0 -12 5 -18 10 -15 6 3 10 0
10 -7 0 -8 9 -20 20 -28 11 -8 20 -20 20 -27 0 -7 6 -12 12 -11 7 2 12 -2 11
-9 -2 -6 6 -15 17 -18 11 -4 18 -11 15 -16 -4 -5 -1 -9 5 -9 6 0 8 -5 4 -12
-4 -6 -3 -8 4 -4 6 3 17 -2 24 -12 7 -11 23 -22 36 -26 12 -4 22 -14 22 -21 0
-8 10 -20 22 -26 13 -7 27 -18 31 -25 4 -8 17 -14 28 -14 11 0 18 -3 16 -7 -6
-9 19 -34 26 -27 2 2 10 -2 17 -11 7 -8 19 -15 26 -15 8 0 14 -5 14 -11 0 -5
4 -8 9 -5 4 3 19 -3 31 -14 23 -20 34 -24 59 -21 7 2 10 -2 6 -8 -3 -6 1 -11
10 -11 10 0 13 -5 9 -12 -5 -9 -2 -9 9 1 11 9 17 10 17 2 0 -6 7 -11 16 -11 9
0 12 -5 8 -12 -6 -10 -4 -10 8 0 14 11 18 10 27 -5 6 -10 11 -14 11 -9 0 5 7
3 15 -4 8 -6 19 -9 25 -5 5 3 10 2 10 -2 0 -5 10 -10 23 -11 12 -2 31 -4 42
-5 11 -2 19 -7 18 -13 -1 -6 15 -10 38 -9 21 1 39 -2 39 -7 0 -4 18 -8 41 -8
29 0 38 -3 33 -12 -5 -9 -2 -9 9 1 13 10 17 10 17 1 0 -9 3 -10 13 -1 10 8 17
7 26 -2 9 -9 14 -9 20 1 7 11 9 11 14 0 3 -10 20 -13 58 -12 36 2 49 0 39 -6
-8 -5 -10 -10 -4 -10 6 0 14 3 18 7 3 4 16 8 27 10 14 2 18 -1 13 -9 -6 -10
-5 -10 7 -1 9 7 25 11 37 8 12 -2 22 1 22 8 0 8 3 8 12 -1 9 -9 16 -8 32 6 11
9 16 11 12 4 -9 -16 24 -13 37 3 6 6 10 6 14 -2 3 -10 8 -9 20 2 8 8 19 13 24
9 6 -3 15 -2 22 3 7 4 21 8 32 8 11 0 26 5 33 12 7 6 21 10 32 8 11 -2 20 0
20 4 0 4 6 8 13 8 22 1 41 8 55 20 7 7 20 9 29 6 11 -4 14 -3 9 5 -5 8 2 12
19 12 17 0 24 4 19 12 -5 8 -2 9 9 5 10 -3 17 -2 17 4 0 5 14 15 30 20 17 6
30 15 30 21 0 5 5 6 10 3 6 -3 10 -1 10 5 0 6 5 8 10 5 6 -3 10 -2 10 3 0 5
16 17 35 26 19 9 35 21 35 26 0 5 12 13 26 16 19 5 22 9 12 15 -10 7 -9 9 5 9
9 0 17 5 17 10 0 6 10 10 23 10 16 0 18 3 8 9 -11 7 -9 10 8 16 11 3 21 11 21
16 0 6 5 7 10 4 6 -3 10 1 10 9 0 9 7 16 16 16 8 0 12 5 9 10 -3 6 -1 10 5 10
6 0 8 5 4 12 -4 7 -3 8 4 4 8 -4 16 3 22 18 5 14 17 26 25 26 9 0 14 4 11 8
-3 5 8 23 24 41 17 18 30 38 30 46 0 7 7 15 15 19 8 3 15 12 15 21 0 8 4 15 9
15 5 0 12 11 15 25 4 14 11 25 16 25 5 0 7 7 4 15 -4 8 -1 15 5 15 6 0 11 9
11 21 0 11 5 17 10 14 6 -3 10 3 10 14 0 12 6 21 13 21 8 0 7 4 -3 10 -12 8
-12 10 -1 10 8 0 11 3 8 7 -4 3 1 12 11 20 9 8 12 12 5 8 -9 -4 -8 3 2 21 8
15 12 31 9 36 -3 4 -1 8 5 8 5 0 8 11 6 25 -2 21 0 23 12 14 11 -10 12 -8 3
15 -7 20 -7 25 2 20 8 -5 9 -2 5 9 -3 10 -2 17 4 17 6 0 7 4 4 10 -3 5 -1 18
4 28 7 13 7 22 0 29 -8 8 -7 13 2 18 8 6 10 4 4 -5 -5 -9 -4 -11 3 -6 9 5 9
13 2 27 -6 10 -7 19 -2 19 5 0 9 15 9 33 -1 17 4 31 9 30 5 -1 10 7 10 17 0
10 -3 17 -6 15 -4 -2 -7 9 -7 25 0 16 5 27 10 23 5 -3 4 5 -3 17 -7 12 -8 20
-2 16 5 -3 10 5 10 19 0 14 -4 22 -9 19 -5 -3 -9 0 -9 5 0 6 5 11 11 11 5 0 9
10 7 22 -2 11 3 23 11 26 8 3 11 0 7 -7 -11 -17 0 -13 15 6 9 11 10 14 2 9 -9
-5 -11 -2 -7 8 8 21 33 -3 28 -27 -1 -10 1 -15 7 -12 5 4 7 10 4 15 -3 5 -1
11 5 15 5 3 10 -2 11 -12 0 -16 1 -16 9 2 8 19 8 19 15 1 8 -17 9 -17 26 5 25
33 24 48 -3 43 -13 -2 -16 -1 -8 2 8 4 21 12 29 18 11 8 13 8 8 0 -4 -7 0 -15
8 -18 9 -3 18 1 21 9 4 8 11 15 16 15 6 0 6 -6 -1 -14 -8 -10 -9 -16 -1 -21
11 -7 12 -5 14 28 1 12 7 21 12 20 14 -3 11 32 -5 51 -9 11 -10 16 -2 16 6 0
11 -4 11 -10 0 -5 7 -10 16 -10 12 0 14 3 6 13 -8 9 -8 17 0 27 8 12 9 11 4
-3 -4 -12 -2 -17 6 -14 7 2 11 12 10 22 -3 17 -2 17 15 4 16 -12 17 -12 6 2
-7 9 -10 19 -6 22 3 4 0 13 -7 22 -7 9 -10 18 -6 22 3 4 13 -2 22 -13 15 -18
15 -18 5 3 -6 12 -8 23 -3 26 4 2 1 2 -5 1 -7 -2 -13 1 -13 5 0 5 6 12 13 14
9 4 8 6 -2 6 -23 2 -41 34 -28 51 6 8 8 12 3 8 -15 -13 -45 11 -41 32 2 11 0
18 -5 15 -5 -3 -11 -1 -15 5 -3 5 -2 10 4 10 6 0 8 7 4 15 -3 10 -1 15 7 13 7
-2 15 4 17 12 4 13 3 13 -6 0 -6 -8 -11 -11 -11 -5 0 15 -24 -13 -26 -32 -2
-9 4 -22 13 -28 14 -10 13 -12 -8 -10 -20 1 -23 7 -24 43 -1 22 3 38 7 36 4
-3 16 0 25 6 17 11 17 11 1 6 -20 -6 -25 10 -5 17 10 4 10 6 0 6 -7 1 -13 10
-13 22 0 11 3 18 8 16 4 -3 8 9 10 26 4 48 7 66 15 73 12 13 8 36 -5 28 -10
-6 -10 -4 0 7 6 7 12 24 12 37 0 13 4 21 8 18 5 -3 9 1 9 9 0 8 -5 12 -10 8
-5 -3 -4 4 2 15 8 14 8 23 1 27 -8 5 -7 11 1 21 6 8 8 14 3 14 -5 0 -2 5 6 10
8 5 10 10 4 10 -6 0 -11 6 -11 14 0 9 7 12 16 8 13 -4 13 -2 -2 15 -18 21 -18
22 0 32 10 6 12 11 5 11 -10 0 -10 5 -2 20 9 16 8 20 -7 20 -15 0 -15 2 3 15
13 10 14 14 5 15 -11 0 -11 3 -1 15 8 10 9 15 1 15 -7 0 -8 11 -4 32 4 22 3
29 -5 24 -8 -5 -10 -2 -6 9 4 8 1 22 -6 30 -7 8 -10 22 -6 30 3 9 0 15 -9 15
-8 0 -12 8 -10 20 2 13 -2 20 -11 20 -8 0 -14 9 -14 20 0 11 -3 19 -7 18 -5
-2 -23 12 -41 30 -18 18 -37 30 -41 28 -4 -3 -13 3 -21 14 -7 10 -20 16 -28
12 -11 -4 -13 -2 -7 8 6 10 4 12 -8 7 -9 -3 -19 -2 -23 4 -3 6 -11 8 -17 6 -7
-2 -21 3 -31 12 -11 9 -16 11 -13 4 9 -15 -32 -14 -52 1 -11 8 -13 8 -7 -1 8
-14 -6 -16 -41 -7 -13 4 -23 13 -23 21 0 8 -6 13 -13 10 -14 -5 -39 17 -30 27
4 3 -4 6 -16 6 -12 0 -19 4 -16 10 3 6 -1 10 -10 10 -10 0 -13 5 -9 12 4 6 3
8 -4 5 -14 -9 -43 3 -36 14 5 8 -18 14 -39 10 -5 -1 -6 3 -2 9 3 5 -1 10 -9
10 -9 0 -16 5 -16 11 0 5 -5 7 -11 4 -5 -4 -19 1 -29 10 -11 10 -26 15 -35 11
-9 -3 -13 -2 -10 4 3 6 -5 10 -19 10 -14 0 -28 5 -31 10 -4 6 -15 8 -25 5 -10
-3 -21 -2 -24 3 -3 5 -16 8 -28 8 -13 -1 -31 2 -42 7 -12 6 -16 5 -12 -1z
m649 -371 c-4 -16 -1 -19 16 -14 12 3 21 1 21 -6 0 -6 7 -11 16 -11 8 0 12 -4
9 -10 -3 -5 1 -10 9 -10 10 0 13 -6 9 -17 -4 -11 -3 -14 5 -9 11 6 17 -5 13
-26 0 -5 3 -8 9 -8 6 0 10 -8 10 -18 0 -10 3 -22 7 -26 11 -10 12 -37 2 -30
-5 3 -9 -2 -9 -11 0 -10 5 -13 13 -9 8 5 8 2 -2 -9 -7 -9 -9 -17 -4 -17 5 0
10 -6 10 -14 0 -11 -4 -12 -18 -3 -10 6 -16 20 -14 34 1 13 -2 23 -7 23 -6 0
-8 7 -4 15 3 8 1 15 -4 15 -6 0 -10 7 -10 15 0 8 -4 15 -10 15 -5 0 -7 7 -4
15 4 10 0 15 -11 15 -9 0 -13 4 -10 10 6 10 -5 28 -42 62 -17 16 -20 25 -12
35 15 18 18 16 12 -6z m125 -277 c7 -14 8 -23 2 -19 -5 3 -9 -8 -8 -28 1 -19
-2 -39 -6 -45 -3 -6 -1 -14 4 -17 8 -5 5 -14 -7 -28 -10 -11 -12 -17 -5 -13
11 7 12 4 3 -12 -6 -12 -7 -23 -2 -26 5 -4 4 -16 -2 -30 -7 -13 -16 -22 -22
-18 -5 3 -4 -2 4 -11 11 -14 11 -17 0 -17 -11 0 -11 -2 1 -10 13 -8 13 -11 1
-19 -8 -5 -12 -18 -8 -30 3 -11 -1 -25 -8 -31 -8 -6 -11 -19 -8 -27 4 -10 2
-14 -4 -10 -6 4 -14 -4 -17 -18 -4 -14 -11 -25 -17 -25 -8 0 -7 6 2 16 10 12
10 17 0 23 -7 5 -13 12 -13 17 1 5 -6 8 -13 6 -10 -2 -13 3 -9 15 5 17 5 17
-6 0 -9 -14 -15 -15 -25 -7 -23 19 -42 -28 -24 -61 6 -12 3 -21 -9 -30 -15
-12 -16 -12 -4 2 10 14 10 18 -2 22 -8 3 -17 1 -20 -6 -3 -7 -5 -6 -5 3 2 32
-2 39 -21 35 -17 -3 -20 2 -20 29 0 34 20 62 35 48 5 -4 5 -2 2 5 -4 6 -1 18
7 26 8 8 12 18 8 22 -4 5 1 5 10 2 10 -3 17 -3 17 1 -1 4 0 10 1 15 1 4 3 13
4 20 1 6 7 11 13 10 6 -1 17 5 25 14 11 14 11 16 -2 9 -8 -4 -5 1 8 12 12 11
22 25 22 32 0 6 4 9 8 6 5 -3 15 7 23 22 18 36 35 53 43 44 4 -3 5 6 2 22 -4
23 -3 26 10 15 12 -10 13 -9 9 4 -4 8 -2 18 4 22 8 4 8 12 1 26 -6 10 -7 19
-2 19 5 0 14 -12 20 -26z m-166 -397 c-6 -7 -8 -18 -4 -23 4 -5 3 -6 -2 -2
-14 11 -17 40 -3 31 7 -4 8 0 3 13 -6 15 -5 16 5 7 9 -9 9 -16 1 -26z m51 3
c-3 -12 -8 -19 -11 -16 -5 6 5 36 12 36 2 0 2 -9 -1 -20z m223 -218 l1 -27
-11 25 c-8 18 -18 25 -38 24 -15 -1 -25 3 -22 7 2 4 12 5 21 2 11 -4 14 -3 9
5 -5 9 -2 10 16 2 15 -7 23 -20 24 -38z m24 -46 c0 -3 -4 -8 -10 -11 -5 -3
-10 -1 -10 4 0 6 5 11 10 11 6 0 10 -2 10 -4z m-50 -166 c-12 -22 -21 -26 -17
-7 2 10 17 26 25 27 1 0 -2 -9 -8 -20z m-37 -25 c-7 -21 -12 -19 -10 4 0 11 5
18 9 15 4 -3 5 -11 1 -19z m-93 5 c0 -5 -2 -10 -4 -10 -3 0 -8 5 -11 10 -3 6
-1 10 4 10 6 0 11 -4 11 -10z m50 -5 c-7 -8 -17 -15 -22 -15 -11 0 14 29 26
30 5 0 3 -7 -4 -15z"/>
<path d="M2686 2034 c-5 -13 -9 -14 -20 -5 -10 8 -16 9 -21 1 -6 -10 -5 -11
15 -14 5 0 16 -10 25 -21 16 -20 16 -20 6 1 -7 15 -7 24 1 32 7 7 9 14 6 17
-3 3 -8 -2 -12 -11z"/>
<path d="M3030 1799 c0 -4 6 -9 13 -12 8 -3 14 0 14 7 0 7 -6 13 -14 13 -7 0
-13 -4 -13 -8z"/>
<path d="M2925 1509 c3 -4 -2 -9 -10 -13 -8 -3 -15 -11 -15 -18 0 -10 2 -10 9
1 5 8 14 10 21 6 9 -5 11 -4 6 3 -4 7 -2 12 3 12 6 0 11 4 11 8 0 5 -7 9 -15
9 -8 0 -12 -4 -10 -8z"/>
</g>
</svg>
