<?xml version="1.0" standalone="no"?>
<!DOCTYPE svg PUBLIC "-//W3C//DTD SVG 20010904//EN"
 "http://www.w3.org/TR/2001/REC-SVG-20010904/DTD/svg10.dtd">
<svg version="1.0" xmlns="http://www.w3.org/2000/svg"
 width="512.000000pt" height="512.000000pt" viewBox="0 0 512.000000 512.000000"
 preserveAspectRatio="xMidYMid meet">
<metadata>
Created by potrace 1.11, written by Peter Selinger 2001-2013
</metadata>
<g transform="translate(0.000000,512.000000) scale(0.100000,-0.100000)"
fill="#000000" stroke="none">
<path d="M3962 4793 c-57 -28 -65 -58 -66 -233 0 -134 2 -159 19 -187 37 -63
130 -79 182 -31 39 36 44 60 45 218 0 117 -3 154 -16 181 -30 64 -97 85 -164
52z"/>
<path d="M4640 4478 c-31 -11 -216 -193 -237 -232 -31 -58 -9 -139 45 -168 14
-7 45 -13 69 -12 42 1 50 6 135 90 118 117 148 158 148 203 -1 87 -82 148
-160 119z"/>
<path d="M3562 4038 c-106 -16 -265 -98 -379 -195 -34 -29 -66 -53 -70 -53 -4
1 -48 39 -98 86 -156 149 -193 148 -327 -6 -13 -15 -151 -169 -199 -223 l-27
-29 -73 32 c-116 51 -264 98 -364 114 -144 24 -168 25 -315 25 -154 -1 -176
-3 -305 -25 -191 -33 -447 -136 -620 -249 -178 -117 -378 -317 -494 -495 -123
-189 -216 -417 -257 -628 -24 -124 -29 -187 -28 -362 0 -201 10 -276 59 -455
156 -571 593 -1026 1152 -1200 162 -50 285 -68 473 -69 259 -1 395 21 610 101
604 224 1034 775 1113 1428 14 116 15 299 2 400 -4 33 -9 74 -11 90 -8 71 -32
168 -66 270 -36 111 -51 148 -105 254 -24 46 -43 87 -43 92 0 6 139 166 244
279 63 68 76 91 76 135 -1 55 -11 70 -118 170 -90 85 -92 88 -75 107 32 36
150 108 219 134 121 46 266 23 382 -60 28 -21 52 -42 52 -46 0 -5 19 -17 43
-28 96 -46 192 29 172 134 -12 66 -158 188 -282 234 -109 41 -235 55 -341 38z
m-1896 -1023 c44 -58 31 -141 -29 -179 -12 -8 -42 -17 -67 -21 -84 -12 -103
-16 -157 -35 -238 -84 -421 -309 -448 -555 -9 -78 -30 -122 -69 -142 -38 -19
-75 -19 -114 1 -74 38 -82 118 -30 306 42 154 119 287 232 400 142 145 319
236 511 264 97 14 137 5 171 -39z"/>
<path d="M4755 3809 c-62 -7 -75 -13 -99 -45 -42 -58 -27 -143 31 -181 23 -15
53 -18 178 -19 167 -2 200 5 231 52 40 59 25 139 -32 174 -29 18 -51 22 -146
23 -62 1 -135 -1 -163 -4z"/>
<path d="M4451 3303 c-35 -17 -72 -80 -66 -112 2 -9 4 -24 4 -34 1 -21 203
-233 241 -252 73 -37 172 25 172 108 0 52 -22 83 -134 194 -88 87 -109 103
-143 107 -27 4 -51 0 -74 -11z"/>
<path d="M3983 3058 c-19 -5 -44 -23 -59 -43 -26 -34 -26 -39 -28 -190 -1
-174 6 -204 61 -241 55 -37 137 -14 168 46 10 20 15 71 16 183 1 159 -6 194
-45 226 -23 20 -77 29 -113 19z"/>
</g>
</svg>
